<?xml version="1.0" encoding="utf-8"?>
<!-- Generator: Adobe Illustrator 18.1.0, SVG Export Plug-In . SVG Version: 6.00 Build 0)  -->
<svg version="1.1" id="Layer_1" xmlns="http://www.w3.org/2000/svg" xmlns:xlink="http://www.w3.org/1999/xlink" x="0px" y="0px"
	 viewBox="-91 -22.3 100 100" enable-background="new -91 -22.3 100 100" xml:space="preserve">
<path fill="#FFFFFF" d="M-52.7,61.8c-18.7,0-33.8-15.1-33.8-33.8S-71.4-5.7-52.7-5.7c12.7,0,23.7,7,29.5,17.3
	c1.4-0.2,2.8-0.4,4.3-0.4c14,0,25.3,11.3,25.3,25.3c0,14-11.3,25.3-25.3,25.3C-24.8,61.8-46,61.8-52.7,61.8z M-18.9,53.4
	c9.3,0,16.9-7.6,16.9-16.9c0-9.3-7.6-16.9-16.9-16.9c-3.4,0-6.5,1-9.1,2.7C-30.7,11.1-40.7,2.7-52.7,2.7c-14,0-25.3,11.3-25.3,25.3
	c0,14,11.3,25.3,25.3,25.3C-45.1,53.4-25.3,53.4-18.9,53.4z"/>
</svg>
