<?xml version="1.0" encoding="utf-8"?>
<!-- Generator: Adobe Illustrator 18.1.0, SVG Export Plug-In . SVG Version: 6.00 Build 0)  -->
<svg version="1.1" id="Layer_1" xmlns="http://www.w3.org/2000/svg" xmlns:xlink="http://www.w3.org/1999/xlink" x="0px" y="0px"
	 viewBox="-91 -22.3 100 100" enable-background="new -91 -22.3 100 100" xml:space="preserve">
<path fill="#FFFFFF" d="M-11.3,46.9v-9.1C-6.3,35-3,29.7-3,23.5C-3,14.4-10.4,7-19.6,7c-3.3,0-6.4,1-9,2.7
	c-2.5-11-12.4-19.2-24.2-19.2c-13.7,0-24.8,11.1-24.8,24.8c0,7.3,3.2,13.9,8.3,18.5v10.2c-9.9-5.7-16.6-16.4-16.6-28.7
	C-85.8-3-71-17.9-52.7-17.9c12.4,0,23.2,6.9,28.9,17c1.4-0.2,2.8-0.4,4.2-0.4C-5.8-1.3,5.3,9.8,5.3,23.5
	C5.3,34.4-1.6,43.5-11.3,46.9z M-56.8,23.5c2.3,0,4.1,1.9,4.1,4.1v33.1c0,2.3-1.9,4.1-4.1,4.1s-4.1-1.9-4.1-4.1V27.7
	C-61,25.4-59.1,23.5-56.8,23.5z M-40.3,31.8c2.3,0,4.1,1.9,4.1,4.1v33.1c0,2.3-1.9,4.1-4.1,4.1s-4.1-1.9-4.1-4.1V36
	C-44.4,33.7-42.5,31.8-40.3,31.8z M-23.7,23.5c2.3,0,4.1,1.9,4.1,4.1v33.1c0,2.3-1.9,4.1-4.1,4.1s-4.1-1.9-4.1-4.1V27.7
	C-27.8,25.4-26,23.5-23.7,23.5z"/>
</svg>
