<?xml version="1.0" encoding="utf-8"?>
<!-- Generator: Adobe Illustrator 18.1.0, SVG Export Plug-In . SVG Version: 6.00 Build 0)  -->
<svg version="1.1" id="Calque_1" xmlns="http://www.w3.org/2000/svg" xmlns:xlink="http://www.w3.org/1999/xlink" x="0px" y="0px"
	 viewBox="0 0 150 150" enable-background="new 0 0 150 150" xml:space="preserve">
<path fill="#FFFFFF" d="M117.8,110.4V97.4c7.1-4.2,12-11.7,12-20.5c0-13.2-10.7-23.9-23.9-23.9c-4.6,0-9,1.5-12.9,3.9
	C89.2,41,75,29.3,58.2,29.3c-19.5,0-35.7,15.9-35.7,35.7c0,10.5,4.6,20,12,26.4V106c-14.2-8.1-23.9-23.5-23.9-41
	c0-26.1,21.3-47.4,47.4-47.4c17.8,0,33.5,9.8,41.5,24.4c2-0.2,3.9-0.5,6.1-0.5c19.8-0.2,35.7,15.6,35.7,35.2
	C141.2,92.3,131.5,105.5,117.8,110.4z M52.3,88.7c3.4,0,5.9,2.7,5.9,5.9c0,3.4-2.7,5.9-5.9,5.9c-3.4,0-5.9-2.7-5.9-5.9
	C46.4,91.3,48.9,88.7,52.3,88.7z M52.3,112.4c3.4,0,5.9,2.7,5.9,5.9c0,3.2-2.7,5.9-5.9,5.9c-3.4,0-5.9-2.7-5.9-5.9
	C46.4,115,48.9,112.4,52.3,112.4z M76,100.4c3.4,0,5.9,2.7,5.9,5.9s-2.7,5.9-5.9,5.9c-3.4,0-5.9-2.7-5.9-5.9
	C70.1,103.3,72.8,100.4,76,100.4z M76,124.3c3.4,0,5.9,2.7,5.9,5.9c0,3.4-2.7,5.9-5.9,5.9c-3.4,0-5.9-2.7-5.9-5.9
	C70.1,127,72.8,124.3,76,124.3z M99.7,88.7c3.4,0,5.9,2.7,5.9,5.9c0,3.4-2.7,5.9-5.9,5.9c-3.4,0-5.9-2.7-5.9-5.9
	C93.8,91.3,96.5,88.7,99.7,88.7z M99.7,112.4c3.4,0,5.9,2.7,5.9,5.9c0,3.2-2.7,5.9-5.9,5.9c-3.4,0-5.9-2.7-5.9-5.9
	C93.8,115,96.5,112.4,99.7,112.4z"/>
</svg>
