<?xml version="1.0" encoding="utf-8"?>
<!-- Generator: Adobe Illustrator 18.1.0, SVG Export Plug-In . SVG Version: 6.00 Build 0)  -->
<svg version="1.1" id="Layer_1" xmlns="http://www.w3.org/2000/svg" xmlns:xlink="http://www.w3.org/1999/xlink" x="0px" y="0px"
	 viewBox="-91 -22.3 100 100" enable-background="new -91 -22.3 100 100" xml:space="preserve">
<path fill="#FFFFFF" d="M-1.8,31.3h-7.1c-2,0-3.6-1.6-3.6-3.6s1.6-3.6,3.6-3.6h7.1c2,0,3.6,1.6,3.6,3.6S0.2,31.3-1.8,31.3z
	 M-15.8,7.5c-1.4,1.4-3.7,1.4-5,0c-1.4-1.4-1.4-3.7,0-5l5-5c1.4-1.4,3.7-1.4,5,0c1.4,1.4,1.4,3.7,0,5L-15.8,7.5z M-41,49.1
	c-11.8,0-21.4-9.6-21.4-21.4c0-11.8,9.6-21.4,21.4-21.4c11.8,0,21.4,9.6,21.4,21.4C-19.6,39.5-29.2,49.1-41,49.1z M-41,13.4
	c-7.9,0-14.3,6.4-14.3,14.3c0,7.9,6.4,14.3,14.3,14.3s14.3-6.4,14.3-14.3C-26.7,19.8-33.1,13.4-41,13.4z M-41-0.9
	c-2,0-3.6-1.6-3.6-3.6v-7.1c0-2,1.6-3.6,3.6-3.6c2,0,3.6,1.6,3.6,3.6v7.1C-37.4-2.5-39-0.9-41-0.9z M-66.2,7.5l-5-5
	c-1.4-1.4-1.4-3.7,0-5c1.4-1.4,3.7-1.4,5,0l5,5c1.4,1.4,1.4,3.7,0,5C-62.6,8.9-64.8,8.9-66.2,7.5z M-69.5,27.7c0,2-1.6,3.6-3.6,3.6
	h-7.1c-2,0-3.6-1.6-3.6-3.6s1.6-3.6,3.6-3.6h7.1C-71.1,24.1-69.5,25.7-69.5,27.7z M-66.2,47.9c1.4-1.4,3.7-1.4,5,0
	c1.4,1.4,1.4,3.7,0,5l-5,5c-1.4,1.4-3.7,1.4-5,0c-1.4-1.4-1.4-3.7,0-5L-66.2,47.9z M-41,56.2c2,0,3.6,1.6,3.6,3.6v7.1
	c0,2-1.6,3.6-3.6,3.6c-2,0-3.6-1.6-3.6-3.6v-7.1C-44.6,57.8-43,56.2-41,56.2z M-15.8,47.9l5,5c1.4,1.4,1.4,3.7,0,5
	c-1.4,1.4-3.7,1.4-5,0l-5-5c-1.4-1.4-1.4-3.7,0-5C-19.4,46.5-17.2,46.5-15.8,47.9z"/>
</svg>
