<?xml version="1.0" encoding="utf-8"?>
<!-- Generator: Adobe Illustrator 18.1.0, SVG Export Plug-In . SVG Version: 6.00 Build 0)  -->
<svg version="1.1" id="Layer_1" xmlns="http://www.w3.org/2000/svg" xmlns:xlink="http://www.w3.org/1999/xlink" x="0px" y="0px"
	 viewBox="-91 -22.3 100 100" enable-background="new -91 -22.3 100 100" xml:space="preserve">
<path fill="#FFFFFF" d="M-6.1,30.8L-6.1,30.8h-6.5c-2.4,0-4.4-1.9-4.4-4.4s1.9-4.4,4.4-4.4h6.5c2.4,0,4.4-2,4.4-4.4
	c0-2.4-2-4.4-4.4-4.4c-2.4,0-4.4-2-4.4-4.4s1.9-4.4,4.4-4.4c0.3,0,0.6,0,0.9,0.1c6.8,0.5,12.2,6.1,12.2,13C6.9,25,1.1,30.8-6.1,30.8
	z M-27.9,22.1h-4.4h-15.2h-28.3c-2.4,0-4.4,2-4.4,4.4s1.9,4.4,4.4,4.4h4.4h8.7h6.5h8.7h6.5h8.7h4.4c7.2,0,13.1,5.9,13.1,13.1
	c0,6.9-5.4,12.5-12.2,13c-0.3,0.1-0.6,0.1-0.9,0.1c-2.4,0-4.4-2-4.4-4.4c0-2.4,2-4.4,4.4-4.4c2.4,0,4.4-2,4.4-4.4
	c0-2.4-1.9-4.4-4.4-4.4h-4.4H-41h-6.5h-8.7h-6.5h-8.7h-4.4c-7.2,0-13.1-5.9-13.1-13.1c0-6.9,5.4-12.5,12.2-13
	c0.3-0.1,0.6-0.1,0.9-0.1l0,0h28.3h15.2h4.4c2.4,0,4.4-2,4.4-4.4s-1.9-4.4-4.4-4.4c-2.4,0-4.4-1.9-4.4-4.4c0-2.4,2-4.4,4.4-4.4
	c0.3,0,0.6,0,0.9,0.1c6.8,0.5,12.2,6.1,12.2,13C-14.9,16.3-20.7,22.1-27.9,22.1z"/>
</svg>
