<svg xmlns="http://www.w3.org/2000/svg">
  <defs>
    <symbol id="tabler-antenna-bars-1" viewBox="0 0 24 24" fill="none" stroke="currentColor" stroke-width="2" stroke-linecap="round" stroke-linejoin="round">
      <desc>Download more icon variants from https://tabler-icons.io/i/antenna-bars-1</desc>
      <path stroke="none" d="M0 0h24v24H0z" fill="none" />
      <line x1="6" y1="18" x2="6" y2="18.01" />
      <line x1="10" y1="18" x2="10" y2="18.01" />
      <line x1="14" y1="18" x2="14" y2="18.01" />
      <line x1="18" y1="18" x2="18" y2="18.01" />
    </symbol>
    <symbol id="tabler-antenna-bars-2" viewBox="0 0 24 24" fill="none" stroke="currentColor" stroke-width="2" stroke-linecap="round" stroke-linejoin="round">
      <desc>Download more icon variants from https://tabler-icons.io/i/antenna-bars-2</desc>
      <path stroke="none" d="M0 0h24v24H0z" fill="none" />
      <line x1="6" y1="18" x2="6" y2="15" />
      <line x1="10" y1="18" x2="10" y2="18.01" />
      <line x1="14" y1="18" x2="14" y2="18.01" />
      <line x1="18" y1="18" x2="18" y2="18.01" />
    </symbol>
    <symbol id="tabler-antenna-bars-3" viewBox="0 0 24 24" fill="none" stroke="currentColor" stroke-width="2" stroke-linecap="round" stroke-linejoin="round">
      <desc>Download more icon variants from https://tabler-icons.io/i/antenna-bars-3</desc>
      <path stroke="none" d="M0 0h24v24H0z" fill="none" />
      <line x1="6" y1="18" x2="6" y2="15" />
      <line x1="10" y1="18" x2="10" y2="12" />
      <line x1="14" y1="18" x2="14" y2="18.01" />
      <line x1="18" y1="18" x2="18" y2="18.01" />
    </symbol>
    <symbol id="tabler-antenna-bars-4" viewBox="0 0 24 24" fill="none" stroke="currentColor" stroke-width="2" stroke-linecap="round" stroke-linejoin="round">
      <desc>Download more icon variants from https://tabler-icons.io/i/antenna-bars-4</desc>
      <path stroke="none" d="M0 0h24v24H0z" fill="none" />
      <line x1="6" y1="18" x2="6" y2="15" />
      <line x1="10" y1="18" x2="10" y2="12" />
      <line x1="14" y1="18" x2="14" y2="9" />
      <line x1="18" y1="18" x2="18" y2="18.01" />
    </symbol>
    <symbol id="tabler-antenna-bars-5" viewBox="0 0 24 24" fill="none" stroke="currentColor" stroke-width="2" stroke-linecap="round" stroke-linejoin="round">
      <desc>Download more icon variants from https://tabler-icons.io/i/antenna-bars-5</desc>
      <path stroke="none" d="M0 0h24v24H0z" fill="none" />
      <line x1="6" y1="18" x2="6" y2="15" />
      <line x1="10" y1="18" x2="10" y2="12" />
      <line x1="14" y1="18" x2="14" y2="9" />
      <line x1="18" y1="18" x2="18" y2="6" />
    </symbol>
    <symbol id="tabler-antenna-bars-off" viewBox="0 0 24 24" fill="none" stroke="currentColor" stroke-width="2" stroke-linecap="round" stroke-linejoin="round">
      <desc>Download more icon variants from https://tabler-icons.io/i/antenna-bars-off</desc>
      <path stroke="none" d="M0 0h24v24H0z" fill="none" />
      <path d="M6 18v-3" />
      <path d="M10 18v-6" />
      <path d="M14 18v-4" />
      <path d="M14 10v-1" />
      <path d="M18 14v-8" />
      <path d="M3 3l18 18" />
    </symbol>
  </defs>
</svg>