<?xml version="1.0" encoding="utf-8"?>
<!-- Generator: Adobe Illustrator 18.1.0, SVG Export Plug-In . SVG Version: 6.00 Build 0)  -->
<svg version="1.1" id="Layer_1" xmlns="http://www.w3.org/2000/svg" xmlns:xlink="http://www.w3.org/1999/xlink" x="0px" y="0px"
	 viewBox="-91 -22.3 100 100" enable-background="new -91 -22.3 100 100" xml:space="preserve">
<path d="M3.4,31.7h-8.1c-2.2,0-4-1.8-4-4s1.8-4,4-4h8.1c2.2,0,4,1.8,4,4S5.6,31.7,3.4,31.7z M-12.5,4.9c-1.6,1.6-4.1,1.6-5.7,0
	c-1.6-1.6-1.6-4.1,0-5.7l5.7-5.7c1.6-1.6,4.1-1.6,5.7,0c1.6,1.6,1.6,4.1,0,5.7L-12.5,4.9z M-41,51.9c-13.4,0-24.2-10.8-24.2-24.2
	c0-13.4,10.8-24.2,24.2-24.2c13.4,0,24.2,10.8,24.2,24.2C-16.8,41.1-27.6,51.9-41,51.9z M-41,11.6c-8.9,0-16.1,7.2-16.1,16.1
	c0,8.9,7.2,16.1,16.1,16.1s16.1-7.2,16.1-16.1C-24.9,18.8-32.1,11.6-41,11.6z M-41-4.6c-2.2,0-4-1.8-4-4v-8.1c0-2.2,1.8-4,4-4
	c2.2,0,4,1.8,4,4v8.1C-37-6.4-38.8-4.6-41-4.6z M-69.5,4.9l-5.7-5.7c-1.6-1.6-1.6-4.1,0-5.7c1.6-1.6,4.1-1.6,5.7,0l5.7,5.7
	c1.6,1.6,1.6,4.1,0,5.7S-67.9,6.4-69.5,4.9z M-73.3,27.7c0,2.2-1.8,4-4,4h-8.1c-2.2,0-4-1.8-4-4s1.8-4,4-4h8.1
	C-75.1,23.7-73.3,25.5-73.3,27.7z M-69.5,50.5c1.6-1.6,4.1-1.6,5.7,0c1.6,1.6,1.6,4.1,0,5.7l-5.7,5.7c-1.6,1.6-4.1,1.6-5.7,0
	c-1.6-1.6-1.6-4.1,0-5.7L-69.5,50.5z M-41,60c2.2,0,4,1.8,4,4v8.1c0,2.2-1.8,4-4,4c-2.2,0-4-1.8-4-4V64C-45,61.8-43.2,60-41,60z
	 M-12.5,50.5l5.7,5.7c1.6,1.6,1.6,4.1,0,5.7c-1.6,1.6-4.1,1.6-5.7,0l-5.7-5.7c-1.6-1.6-1.6-4.1,0-5.7C-16.6,48.9-14,48.9-12.5,50.5z
	"/>
</svg>
