<?xml version="1.0" encoding="utf-8"?>
<!-- Generator: Adobe Illustrator 18.1.0, SVG Export Plug-In . SVG Version: 6.00 Build 0)  -->
<svg version="1.1" id="Layer_1" xmlns="http://www.w3.org/2000/svg" xmlns:xlink="http://www.w3.org/1999/xlink" x="0px" y="0px"
	 viewBox="-91 -22.3 100 100" enable-background="new -91 -22.3 100 100" xml:space="preserve">
<path d="M-53.6,61.2C-72,61.2-87,46.2-87,27.7S-72-5.8-53.6-5.8c12.6,0,23.5,6.9,29.2,17.2c1.4-0.2,2.8-0.4,4.3-0.4
	C-6.2,10.9,5,22.2,5,36.1C5,49.9-6.2,61.2-20.1,61.2C-25.9,61.2-46.9,61.2-53.6,61.2z M-20.1,52.8c9.2,0,16.7-7.5,16.7-16.7
	c0-9.2-7.5-16.7-16.7-16.7c-3.3,0-6.4,1-9.1,2.7C-31.7,10.9-41.6,2.6-53.6,2.6c-13.9,0-25.1,11.2-25.1,25.1
	c0,13.9,11.2,25.1,25.1,25.1C-46,52.8-26.4,52.8-20.1,52.8z"/>
</svg>
