<?xml version="1.0" encoding="utf-8"?>
<!-- Generator: Adobe Illustrator 18.1.0, SVG Export Plug-In . SVG Version: 6.00 Build 0)  -->
<svg version="1.1" id="Layer_1" xmlns="http://www.w3.org/2000/svg" xmlns:xlink="http://www.w3.org/1999/xlink" x="0px" y="0px"
	 viewBox="-91 -22.3 100 100" enable-background="new -91 -22.3 100 100" xml:space="preserve">
<path d="M-10.2,47.7v-9.5c5.2-3,8.7-8.6,8.7-15.1c0-9.6-7.8-17.4-17.4-17.4c-3.5,0-6.7,1-9.4,2.8c-2.7-11.6-13-20.2-25.4-20.2
	c-14.4,0-26.1,11.7-26.1,26.1c0,7.7,3.4,14.7,8.7,19.4v10.7c-10.4-6-17.4-17.3-17.4-30.2c0-19.3,15.6-34.9,34.9-34.9
	c13.1,0,24.5,7.2,30.4,17.9c1.4-0.2,2.9-0.4,4.4-0.4C-4.4-3,7.3,8.7,7.3,23.1C7.3,34.5,0,44.2-10.2,47.7z M-58.1,23.1
	c2.4,0,4.4,2,4.4,4.4v34.9c0,2.4-2,4.4-4.4,4.4c-2.4,0-4.4-2-4.4-4.4V27.5C-62.5,25.1-60.5,23.1-58.1,23.1z M-40.7,31.8
	c2.4,0,4.4,2,4.4,4.4v34.9c0,2.4-2,4.4-4.4,4.4c-2.4,0-4.4-2-4.4-4.4V36.2C-45,33.8-43.1,31.8-40.7,31.8z M-23.2,23.1
	c2.4,0,4.4,2,4.4,4.4v34.9c0,2.4-2,4.4-4.4,4.4s-4.4-2-4.4-4.4V27.5C-27.6,25.1-25.6,23.1-23.2,23.1z"/>
</svg>
