<?xml version="1.0" encoding="utf-8"?>
<!-- Generator: Adobe Illustrator 18.1.0, SVG Export Plug-In . SVG Version: 6.00 Build 0)  -->
<svg version="1.1" id="Layer_1" xmlns="http://www.w3.org/2000/svg" xmlns:xlink="http://www.w3.org/1999/xlink" x="0px" y="0px"
	 viewBox="-91 -22.3 100 100" enable-background="new -91 -22.3 100 100" xml:space="preserve">
<path d="M-10.8,51.9v-9.4c5.1-3,8.6-8.5,8.6-14.8c0-9.5-7.7-17.2-17.2-17.2c-3.4,0-6.6,1-9.3,2.8c-2.6-11.4-12.8-19.9-25-19.9
	c-14.2,0-25.7,11.5-25.7,25.7c0,7.6,3.3,14.4,8.6,19.1v10.5C-81.1,42.9-88,31.8-88,19.1c0-18.9,15.4-34.3,34.3-34.3
	c12.9,0,24.1,7.1,29.9,17.6c1.4-0.2,2.9-0.4,4.4-0.4C-5.2,2,6.3,13.5,6.3,27.7C6.3,38.9-0.8,48.4-10.8,51.9z M-58,36.3
	c2.4,0,4.3,1.9,4.3,4.3c0,2.4-1.9,4.3-4.3,4.3c-2.4,0-4.3-1.9-4.3-4.3C-62.3,38.2-60.4,36.3-58,36.3z M-58,53.4
	c2.4,0,4.3,1.9,4.3,4.3c0,2.4-1.9,4.3-4.3,4.3c-2.4,0-4.3-1.9-4.3-4.3C-62.3,55.3-60.4,53.4-58,53.4z M-40.8,44.8
	c2.4,0,4.3,1.9,4.3,4.3c0,2.4-1.9,4.3-4.3,4.3c-2.4,0-4.3-1.9-4.3-4.3C-45.1,46.8-43.2,44.8-40.8,44.8z M-40.8,62
	c2.4,0,4.3,1.9,4.3,4.3c0,2.4-1.9,4.3-4.3,4.3c-2.4,0-4.3-1.9-4.3-4.3C-45.1,63.9-43.2,62-40.8,62z M-23.7,36.3
	c2.4,0,4.3,1.9,4.3,4.3c0,2.4-1.9,4.3-4.3,4.3c-2.4,0-4.3-1.9-4.3-4.3C-28,38.2-26,36.3-23.7,36.3z M-23.7,53.4
	c2.4,0,4.3,1.9,4.3,4.3c0,2.4-1.9,4.3-4.3,4.3c-2.4,0-4.3-1.9-4.3-4.3C-28,55.3-26,53.4-23.7,53.4z"/>
</svg>
