<?xml version="1.0" encoding="utf-8"?>
<!-- Generator: Adobe Illustrator 18.1.0, SVG Export Plug-In . SVG Version: 6.00 Build 0)  -->
<svg version="1.1" id="Layer_1" xmlns="http://www.w3.org/2000/svg" xmlns:xlink="http://www.w3.org/1999/xlink" x="0px" y="0px"
	 viewBox="-91 -22.3 100 100" enable-background="new -91 -22.3 100 100" xml:space="preserve">
<path d="M-6.5,32.2L-6.5,32.2h-6.5c-2.4,0-4.3-2-4.3-4.5s1.9-4.5,4.3-4.5h6.5c2.4,0,4.3-2,4.3-4.5c0-2.5-1.9-4.5-4.3-4.5
	c-2.4,0-4.3-2-4.3-4.5s1.9-4.5,4.3-4.5c0.3,0,0.6,0,0.9,0.1C1.1,5.7,6.5,11.5,6.5,18.7C6.5,26.1,0.7,32.2-6.5,32.2z M-28.1,23.2
	h-4.3h-15.1h-28.1c-2.4,0-4.3,2-4.3,4.5s1.9,4.5,4.3,4.5h4.3h8.6h6.5h8.6h6.5h8.6h4.3c7.2,0,13,6.1,13,13.6c0,7.2-5.3,13-12.1,13.5
	c-0.3,0.1-0.6,0.1-0.9,0.1c-2.4,0-4.3-2-4.3-4.5c0-2.5,1.9-4.5,4.3-4.5c2.4,0,4.3-2,4.3-4.5s-1.9-4.5-4.3-4.5h-4.3H-41h-6.5h-8.6
	h-6.5h-8.6h-4.3c-7.2,0-12.9-6.1-12.9-13.6c0-7.2,5.3-13,12.1-13.5c0.3-0.1,0.6-0.1,0.9-0.1l0,0h28.1h15.1h4.3c2.4,0,4.3-2,4.3-4.5
	s-1.9-4.5-4.3-4.5c-2.4,0-4.3-2-4.3-4.5c0-2.5,1.9-4.5,4.3-4.5c0.3,0,0.6,0,0.9,0.1c6.7,0.5,12.1,6.3,12.1,13.5
	C-15.1,17.1-20.9,23.2-28.1,23.2z"/>
</svg>
